<svg id="Component_2_3" data-name="Component 2 – 3" xmlns="http://www.w3.org/2000/svg" width="704" height="644" viewBox="0 0 704 644">
  <g id="Rectangle_31" data-name="Rectangle 31" transform="translate(352)" fill="#6e00ff" stroke="#707070" stroke-width="1">
    <rect width="176" height="161" rx="21" stroke="none"/>
    <rect x="0.5" y="0.5" width="175" height="160" rx="20.5" fill="none"/>
  </g>
  <g id="Rectangle_39" data-name="Rectangle 39" transform="translate(176 161)" fill="#fff" stroke="#707070" stroke-width="1">
    <rect width="176" height="161" rx="21" stroke="none"/>
    <rect x="0.5" y="0.5" width="175" height="160" rx="20.5" fill="none"/>
  </g>
  <g id="Rectangle_41" data-name="Rectangle 41" transform="translate(0 322)" fill="#c05ade" stroke="#707070" stroke-width="1">
    <rect width="176" height="161" rx="21" stroke="none"/>
    <rect x="0.5" y="0.5" width="175" height="160" rx="20.5" fill="none"/>
  </g>
  <g id="Rectangle_37" data-name="Rectangle 37" transform="translate(528 156)" fill="#6e00ff" stroke="#707070" stroke-width="1">
    <rect width="176" height="161" rx="21" stroke="none"/>
    <rect x="0.5" y="0.5" width="175" height="160" rx="20.5" fill="none"/>
  </g>
  <g id="Rectangle_38" data-name="Rectangle 38" transform="translate(352 322)" fill="#6e00ff" stroke="#707070" stroke-width="1">
    <rect width="176" height="161" rx="21" stroke="none"/>
    <rect x="0.5" y="0.5" width="175" height="160" rx="20.5" fill="none"/>
  </g>
  <g id="Rectangle_40" data-name="Rectangle 40" transform="translate(176 483)" fill="#974ff7" stroke="#707070" stroke-width="1">
    <rect width="176" height="161" rx="21" stroke="none"/>
    <rect x="0.5" y="0.5" width="175" height="160" rx="20.5" fill="none"/>
  </g>
  <g id="Ellipse_1" data-name="Ellipse 1" transform="translate(352 161)" fill="#d44af9" stroke="#707070" stroke-width="1">
    <ellipse cx="88" cy="80.5" rx="88" ry="80.5" stroke="none"/>
    <ellipse cx="88" cy="80.5" rx="87.5" ry="80" fill="none"/>
  </g>
  <g id="Ellipse_2" data-name="Ellipse 2" transform="translate(176 322)" fill="#d44af9" stroke="#707070" stroke-width="1">
    <ellipse cx="88" cy="80.5" rx="88" ry="80.5" stroke="none"/>
    <ellipse cx="88" cy="80.5" rx="87.5" ry="80" fill="none"/>
  </g>
</svg>
